<?xml version="1.0" ?><svg id="Layer_1" style="enable-background:new 0 0 52 52;" version="1.1" viewBox="0 0 52 52" xml:space="preserve" xmlns="http://www.w3.org/2000/svg" xmlns:xlink="http://www.w3.org/1999/xlink"><style type="text/css">
	.st0{fill:#231F20;}
</style><g><g><path class="st0" d="M5.355762,4.3805957C16.9620342,4.3501992,28.568306,4.3198032,40.1745796,4.2894073    c1.503418-0.0039377,3.2587204-0.2116795,4.7241898,0.1409931c1.7016144-0.3260493,2.7212677,0.4475079,3.0589523,2.320672    c1.2242317,1.1610541,1.6605072,2.5404229,1.3088264,4.1381049c0.2646828,2.5535669-0.0280266,5.2955608-0.041626,7.8649731    c-0.0156059,2.9493637-0.0312157,5.8987293-0.0468254,8.848093c-0.0230103,4.3482952,1.313118,8.7308941-4.7353172,10.0811977    c-2.3827667,0.5319519-5.5019035,0.0124359-7.9522781,0.0179749c-2.9821053,0.0067406-5.9642067,0.0134811-8.946312,0.0202217    c-5.3361244,0.0120621-10.6967258,0.1762695-16.0288105-0.0747681c-1.5571766-0.0733109-3.5091066,0.0811882-4.9619451-0.4759979    c-1.5332456,0.1444817-2.4265084-0.6468964-2.6797872-2.3741302c-0.9909301-0.8768234-1.4044697-1.907093-1.2406192-3.0908146    c-0.4402821-2.6415081,0.0286872-5.7770042,0.0419352-8.4449024C2.691792,19.8719368,0.9409778,4.8374381,5.8139453,4.2076898    c1.4160566-0.183001,1.4343019-2.435359,0-2.2499998C-0.1860823,2.7330914,0.4947526,9.2066364,0.471557,13.8778    c-0.021744,4.3788376-0.0434879,8.7576771-0.0652321,13.1365147c-0.0128507,2.5878754-0.700639,6.5327892,0.4082657,9.0073261    c2.3489225,5.2416458,11.3822632,3.9514236,16.0124969,3.9724312c9.3894119,0.0426025,19.0555,0.5645409,28.416893-0.0824928    c6.1977043-0.4283676,6.1400566-3.9833832,6.1685104-9.359972c0.0242767-4.5879002,0.0485573-9.1758003,0.0728378-13.7637005    c0.0172577-3.2608185,0.9956894-8.3650942-0.4960899-11.384779c-2.5601692-5.1823215-11.175827-3.3627748-15.7887764-3.3506937    C25.2522278,2.0784879,15.3039951,2.1045418,5.355762,2.1305954C3.9081678,2.1343868,3.9054425,4.3843937,5.355762,4.3805957    L5.355762,4.3805957z"/></g><g><path class="st0" d="M1.7715974,32.7545586c15.9721966,0.038868,31.9443913,0.0777321,47.916584,0.1166    c1.4479103,0.0035248,1.4500046-2.2464695,0-2.2499981c-15.9721947-0.038868-31.9443893-0.0777359-47.916584-0.1166039    C0.3236865,30.5010338,0.3215927,32.75103,1.7715974,32.7545586L1.7715974,32.7545586z"/></g><g><path class="st0" d="M31.235857,15.6856594c0.8788929,0.3463078,1.5294781,1.0165615,2.2850323,1.556921    c0.7509575,0.5370731,1.5637245,0.9664364,2.3802528,1.3936539c0-0.6476021,0-1.2952061,0-1.9428082    c-1.845932,1.1831646-3.6918602,2.3663311-5.5377922,3.5494976c-1.2153091,0.7789631-0.0882664,2.7272682,1.1356182,1.9428082    c1.8459301-1.1831646,3.6918621-2.3663311,5.5377903-3.5494976c0.6768227-0.4338169,0.7813759-1.5339832,0-1.9428082    c-1.8011818-0.9424028-3.3216705-2.4361935-5.2027626-3.1773949C30.4864635,12.9850674,29.9019337,15.160058,31.235857,15.6856594    L31.235857,15.6856594z"/></g><g><path class="st0" d="M29.4151974,10.4718094c-1.4681282,2.2247114-2.0501709,4.6230507-3.1633377,7.0007076    c-1.1935024,2.5492458-2.9671383,4.6941223-5.1084461,6.5036716c-1.1074371,0.9358597,0.4909668,2.5205841,1.5909901,1.5909901    c2.0584507-1.7395287,3.8127193-3.7951412,5.0748234-6.1869812c1.3480206-2.5546627,1.9394131-5.3340359,3.5487785-7.7727699    C32.1578445,10.395401,30.2101879,9.267127,29.4151974,10.4718094L29.4151974,10.4718094z"/></g><g><path class="st0" d="M19.7381096,13.3051605c-1.0970936,0.7400408-2.2092915,1.462698-3.2764568,2.2457504    c-0.7715111,0.5661106-2.041996,1.253973-1.8686619,2.3913879c0.1509285,0.9903831,1.2119675,1.2423229,2.018034,1.4687767    c0.6812286,0.1913815,0.9963341,0.5022068,1.4880638,0.9877033c0.4041004,0.3989792,1.0221386,0.6038761,1.3385181,1.0743389    c0.8038635,1.1953678,2.7538586,0.0704346,1.9428082-1.1356163c-0.5597401-0.8323479-1.4246197-1.3662949-2.1485825-2.040041    c-0.3594055-0.3344765-0.7793674-0.5975571-1.2270756-0.7932129c-0.397543-0.1737309-1.1969643-0.1942444-1.511364-0.506979    c0.0964394,0.3648548,0.1928787,0.7297096,0.28932,1.0945663c-0.1057873,0.1328468-0.0640411,0.109705,0.1252403-0.0694256    c0.2236176-0.184124,0.4533882-0.3603535,0.6893177-0.5286903c0.3731003-0.2739201,0.753931-0.5373936,1.1355095-0.7992859    c0.7100525-0.4873371,1.4269924-0.9648676,2.1409473-1.4464636C22.0677719,14.4425306,20.9429741,12.492424,19.7381096,13.3051605    L19.7381096,13.3051605z"/></g><g><path class="st0" d="M24.5215664,36.4336929c0.2222233,0,0.4444447,0,0.6666679,0c1.4477673,0,1.4501648-2.25,0-2.25    c-0.2222233,0-0.4444447,0-0.6666679,0C23.0737991,34.1836929,23.0714016,36.4336929,24.5215664,36.4336929L24.5215664,36.4336929    z"/></g><g><path class="st0" d="M18.249506,49.4132996c1.6710491-1.9104385,5.2588997-1.237381,7.5167065-1.2553101    c2.8260193-0.022438,5.7771091-0.2880516,8.0081177,1.7969971c1.0571289,0.9879608,2.651619-0.5997543,1.590992-1.590992    c-2.7265053-2.5481224-6.059866-2.4845085-9.5991096-2.4560051c-3.0060253,0.0242119-6.9000969-0.6095352-9.1076965,1.9143181    C15.7088137,48.908062,17.2939777,50.5057144,18.249506,49.4132996L18.249506,49.4132996z"/></g><g><path class="st0" d="M30.3965664,39.7253609c0,2.3055534,0,4.6111107,0,6.9166641c0,1.4477692,2.2500019,1.4501648,2.2500019,0    c0-2.3055534,0-4.6111107,0-6.9166641C32.6465683,38.2775917,30.3965664,38.2751923,30.3965664,39.7253609L30.3965664,39.7253609z    "/></g><g><path class="st0" d="M20.0929203,39.3902168c0.1456757,2.3901672,0.2913513,4.7803345,0.4370289,7.1705055    c0.0876808,1.4386215,2.3382893,1.4486008,2.25,0c-0.1456776-2.3901711-0.2913532-4.7803383-0.4370289-7.1705055    C22.2552376,37.9515953,20.004631,37.9416161,20.0929203,39.3902168L20.0929203,39.3902168z"/></g></g></svg>